<svg width="54" height="54" viewBox="0 0 54 54" fill="none" xmlns="http://www.w3.org/2000/svg">
<circle cx="27" cy="27" r="27" fill="#E7EBFC"/>
<rect opacity="0.01" x="39" y="39" width="24" height="24" transform="rotate(180 39 39)" fill="#2E4FD7"/>
<path d="M18.24 22.2899L26.76 26.9199C26.91 26.9999 27.09 26.9999 27.24 26.9199L35.76 22.2899C35.9189 22.2114 36.0153 22.0452 36.0043 21.8683C35.9934 21.6914 35.8774 21.5383 35.71 21.4799L27.19 17.9999C27.0683 17.9499 26.9317 17.9499 26.81 17.9999L18.29 21.4799C18.1226 21.5383 18.0066 21.6914 17.9957 21.8683C17.9847 22.0452 18.081 22.2114 18.24 22.2899Z" fill="#2E4FD7"/>
<path d="M35.71 25.6599L33.88 24.8799L27.24 28.4899C27.09 28.5699 26.91 28.5699 26.76 28.4899L20.12 24.8799L18.29 25.6599C18.132 25.7428 18.0331 25.9065 18.0331 26.0849C18.0331 26.2633 18.132 26.427 18.29 26.5099L26.81 31.4099C26.9573 31.5 27.1427 31.5 27.29 31.4099L35.81 26.5099C35.9604 26.4098 36.0419 26.2337 36.0208 26.0542C35.9996 25.8747 35.8795 25.7224 35.71 25.6599Z" fill="#2E4FD7"/>
<path d="M35.71 30.0999L34.15 29.4199L27.24 33.1799C27.09 33.2599 26.91 33.2599 26.76 33.1799L19.85 29.4199L18.29 30.0999C18.1276 30.1842 18.0256 30.3519 18.0256 30.5349C18.0256 30.7179 18.1276 30.8857 18.29 30.9699L26.81 35.9699C26.96 36.0499 27.14 36.0499 27.29 35.9699L35.81 30.9699C35.965 30.8684 36.0495 30.6881 36.0283 30.5041C36.0072 30.32 35.884 30.1636 35.71 30.0999Z" fill="#2E4FD7"/>
</svg>
