<svg width="54" height="54" viewBox="0 0 54 54" fill="none" xmlns="http://www.w3.org/2000/svg">
<circle cx="27" cy="27" r="27" fill="#E7EBFC"/>
<rect opacity="0.01" x="39" y="15" width="24" height="24" transform="rotate(90 39 15)" fill="#1E1E1E"/>
<path d="M32.56 36.0002C32.4 36.0008 32.2423 35.9631 32.1 35.8902L27 33.2202L21.9 35.8902C21.5621 36.0679 21.1526 36.0377 20.8444 35.8124C20.5362 35.5871 20.3832 35.206 20.45 34.8302L21.45 29.2002L17.33 25.2002C17.068 24.9388 16.9719 24.5541 17.08 24.2002C17.1982 23.8376 17.5124 23.5739 17.89 23.5202L23.59 22.6902L26.1 17.5602C26.2671 17.2152 26.6166 16.9961 27 16.9961C27.3833 16.9961 27.7329 17.2152 27.9 17.5602L30.44 22.6802L36.14 23.5102C36.5175 23.5639 36.8317 23.8276 36.95 24.1902C37.0581 24.5441 36.9619 24.9288 36.7 25.1902L32.58 29.1902L33.58 34.8202C33.6529 35.203 33.4968 35.5933 33.18 35.8202C32.9989 35.9471 32.7809 36.0104 32.56 36.0002Z" fill="#2E4FD7"/>
</svg>
